<svg xmlns="http://www.w3.org/2000/svg" width="2420" height="760" viewBox="0 0 2420 760"><rect width="100%" height="100%" fill="#0d1117"/><defs><filter id="shadow" x="-20%" y="-20%" width="140%" height="140%"><feDropShadow dx="0" dy="4" stdDeviation="6" flood-color="#000000" flood-opacity="0.28"/></filter></defs><rect x="28" y="88" width="300" height="220" rx="28" ry="28" fill="#1f1b0f" stroke="#d4a72c" stroke-width="3" filter="url(#shadow)"/><text x="178.0" y="132" text-anchor="middle" font-family="Inter, Segoe UI, Arial, sans-serif" font-size="30" font-weight="600" fill="#f6c445"><tspan x="178.0" dy="0">YOU / HERMES</tspan></text><text x="178.0" y="186" text-anchor="middle" font-family="Inter, Segoe UI, Arial, sans-serif" font-size="18" font-weight="400" fill="#f0f6fc"><tspan x="178.0" dy="0">surface the next</tspan><tspan x="178.0" dy="28">Linear ticket</tspan></text><line x1="338" y1="198.0" x2="358" y2="198.0" stroke="#7d8590" stroke-width="3"/><polygon points="358,198.0 342,190.0 342,206.0" fill="#7d8590"/><rect x="368" y="88" width="300" height="220" rx="28" ry="28" fill="#1f1b0f" stroke="#d4a72c" stroke-width="3" filter="url(#shadow)"/><text x="518.0" y="132" text-anchor="middle" font-family="Inter, Segoe UI, Arial, sans-serif" font-size="30" font-weight="600" fill="#f6c445"><tspan x="518.0" dy="0">LINEAR TICKET</tspan></text><text x="518.0" y="186" text-anchor="middle" font-family="Inter, Segoe UI, Arial, sans-serif" font-size="18" font-weight="400" fill="#f0f6fc"><tspan x="518.0" dy="0">slice details</tspan><tspan x="518.0" dy="28">source of truth</tspan></text><line x1="678" y1="198.0" x2="698" y2="198.0" stroke="#7d8590" stroke-width="3"/><polygon points="698,198.0 682,190.0 682,206.0" fill="#7d8590"/><rect x="708" y="88" width="300" height="220" rx="28" ry="28" fill="#2b1e1c" stroke="#ff9a73" stroke-width="3" filter="url(#shadow)"/><text x="858.0" y="132" text-anchor="middle" font-family="Inter, Segoe UI, Arial, sans-serif" font-size="30" font-weight="600" fill="#ff9a73"><tspan x="858.0" dy="0">CLAUDE I</tspan></text><text x="858.0" y="186" text-anchor="middle" font-family="Inter, Segoe UI, Arial, sans-serif" font-size="18" font-weight="400" fill="#f0f6fc"><tspan x="858.0" dy="0">Opus 4.8 default</tspan><tspan x="858.0" dy="28">interview-me • idea-refine</tspan><tspan x="858.0" dy="28">spec-driven-development</tspan><tspan x="858.0" dy="28">freeze gates</tspan></text><line x1="1018" y1="198.0" x2="1038" y2="198.0" stroke="#7d8590" stroke-width="3"/><polygon points="1038,198.0 1022,190.0 1022,206.0" fill="#7d8590"/><rect x="1048" y="88" width="300" height="220" rx="28" ry="28" fill="#102a24" stroke="#1abc9c" stroke-width="3" filter="url(#shadow)"/><text x="1198.0" y="132" text-anchor="middle" font-family="Inter, Segoe UI, Arial, sans-serif" font-size="30" font-weight="600" fill="#14d1b1"><tspan x="1198.0" dy="0">CODEX ×1–4</tspan></text><text x="1198.0" y="186" text-anchor="middle" font-family="Inter, Segoe UI, Arial, sans-serif" font-size="18" font-weight="400" fill="#f0f6fc"><tspan x="1198.0" dy="0">GPT-5.4 default</tspan><tspan x="1198.0" dy="28">incremental-implementation</tspan><tspan x="1198.0" dy="28">build in thin steps</tspan><tspan x="1198.0" dy="28">verify per lane</tspan></text><line x1="1358" y1="198.0" x2="1378" y2="198.0" stroke="#7d8590" stroke-width="3"/><polygon points="1378,198.0 1362,190.0 1362,206.0" fill="#7d8590"/><rect x="1388" y="88" width="300" height="220" rx="28" ry="28" fill="#2b1e1c" stroke="#ff9a73" stroke-width="3" filter="url(#shadow)"/><text x="1538.0" y="132" text-anchor="middle" font-family="Inter, Segoe UI, Arial, sans-serif" font-size="30" font-weight="600" fill="#ff9a73"><tspan x="1538.0" dy="0">CLAUDE II</tspan></text><text x="1538.0" y="186" text-anchor="middle" font-family="Inter, Segoe UI, Arial, sans-serif" font-size="18" font-weight="400" fill="#f0f6fc"><tspan x="1538.0" dy="0">Opus 4.8 default</tspan><tspan x="1538.0" dy="28">code-review-and-quality</tspan><tspan x="1538.0" dy="28">code-simplification</tspan><tspan x="1538.0" dy="28">runs gates + judges</tspan><tspan x="1538.0" dy="28">opens PR + updates Linear</tspan></text><line x1="1698" y1="198.0" x2="1718" y2="198.0" stroke="#7d8590" stroke-width="3"/><polygon points="1718,198.0 1702,190.0 1702,206.0" fill="#7d8590"/><rect x="1728" y="88" width="300" height="220" rx="28" ry="28" fill="#1f1b0f" stroke="#d4a72c" stroke-width="3" filter="url(#shadow)"/><text x="1878.0" y="132" text-anchor="middle" font-family="Inter, Segoe UI, Arial, sans-serif" font-size="24" font-weight="600" fill="#f6c445"><tspan x="1878.0" dy="0">GITHUB PR +</tspan><tspan x="1878.0" dy="28">WATCHDOG</tspan></text><text x="1878.0" y="206" text-anchor="middle" font-family="Inter, Segoe UI, Arial, sans-serif" font-size="18" font-weight="400" fill="#f0f6fc"><tspan x="1878.0" dy="0">well-documented PR</tspan><tspan x="1878.0" dy="28">final review</tspan></text><rect x="320" y="520" width="1780" height="170" rx="24" ry="24" fill="#1f1b0f" stroke="#d4a72c" stroke-width="3"/><text x="1210.0" y="574" text-anchor="middle" font-family="Inter, Segoe UI, Arial, sans-serif" font-size="28" font-weight="600" fill="#f6c445">HERMES-NATIVE MODE</text><text x="1210.0" y="612" text-anchor="middle" font-family="Inter, Segoe UI, Arial, sans-serif" font-size="18" font-weight="400" fill="#d4dde5"><tspan x="1210.0" dy="0">Karpathy-guidelines across all stages</tspan><tspan x="1210.0" dy="28">same runtime loop; Hermes may proactively choose the Linear ticket before Claude I begins</tspan></text></svg>